<mxfile>
  <diagram name="Classe Refrigerante">
    <mxGraphModel dx="2000" dy="1200" grid="1" gridSize="10" guides="1" tooltips="1" connect="1">
      <root>
        <mxCell id="0" />
        <mxCell id="1" parent="0" />
        <!-- Classe -->
        <mxCell id="2" value="Refrigerante" style="swimlane;fontStyle=1;childLayout=stackLayout;" vertex="1" parent="1">
          <mxGeometry x="100" y="100" width="200" height="240" as="geometry" />
        </mxCell>
        <!-- Atributos -->
        <mxCell id="3" value="Atributos" style="text;html=1;align=center;fontStyle=1" vertex="1" parent="2" connectable="0">
          <mxGeometry y="40" width="200" height="20" as="geometry" />
        </mxCell>
        <mxCell id="4" value="String nome" style="text;html=1" vertex="1" parent="2" connectable="0">
          <mxGeometry y="60" width="200" height="20" as="geometry" />
        </mxCell>
        <mxCell id="5" value="double volume" style="text;html=1" vertex="1" parent="2" connectable="0">
          <mxGeometry y="80" width="200" height="20" as="geometry" />
        </mxCell>
        <mxCell id="6" value="boolean gasoso" style="text;html=1" vertex="1" parent="2" connectable="0">
          <mxGeometry y="100" width="200" height="20" as="geometry" />
        </mxCell>
        <!-- Métodos -->
        <mxCell id="7" value="Métodos" style="text;html=1;align=center;fontStyle=1" vertex="1" parent="2" connectable="0">
          <mxGeometry y="120" width="200" height="20" as="geometry" />
        </mxCell>
        <mxCell id="8" value="+ void exibirInformacoes()" style="text;html=1" vertex="1" parent="2" connectable="0">
          <mxGeometry y="140" width="200" height="20" as="geometry" />
        </mxCell>
        <mxCell id="9" value="+ void alterarVolume(double)" style="text;html=1" vertex="1" parent="2" connectable="0">
          <mxGeometry y="160" width="200" height="20" as="geometry" />
        </mxCell>
        <mxCell id="10" value="+ void verificarGasoso()" style="text;html=1" vertex="1" parent="2" connectable="0">
          <mxGeometry y="180" width="200" height="20" as="geometry" />
        </mxCell>
      </root>
    </mxGraphModel>
  </diagram>
</mxfile>